<svg xmlns="http://www.w3.org/2000/svg" viewBox="0 0 533.56 454.04"><defs><style>.cls-1{fill:#a2d2b8;}.cls-2{fill:#6cbe99;}.cls-3{fill:#4b160c;}.cls-4{fill:#41725b;}.cls-5{fill:#5a9c7e;}.cls-6{fill:#42765f;}</style></defs><g id="Calque_2" data-name="Calque 2"><g id="Arbres"><path class="cls-1" d="M267.9,371c49.94,0,71.71,24.8,135.34,24.8S531.3,415.43,531.3,432,416.58,454,371.78,454,273.36,432,220.67,432s-122.18,2.15-164,2.15-46.51-9.39-46.51-18,14.31-16.18,60.74-16.18,84.56-4.1,119.72-4.1S244.29,371,267.9,371Z"/><polygon class="cls-2" points="502.13 405.24 496.21 382.29 485.13 371.92 463.55 376.63 445.57 360.37 419.32 352.38 401.88 360.37 387.48 390 367.92 378.81 343.77 384.92 337.1 404.23 502.13 405.24"/><polygon class="cls-3" points="253.19 403.12 262.24 308.21 274.39 249.13 302.97 182.84 296.24 178.91 270.71 228.99 254.06 286.34 250.92 301.53 234.34 282.94 245.07 189.21 237.27 189.21 227.93 268.06 214.11 250.58 219.51 191.28 211.72 191.28 204.79 235.6 174.53 199.42 169.02 204.93 245.39 316.25 244.7 351.2 234.62 402.88 253.19 403.12"/><path class="cls-4" d="M65.27,149.17h0c.11-.29.25-.55.36-.79s.08-.25.13-.37c8.6-19.59,29.44-28.33,47.81-36l4.92-2.07c10.72-4.52,21.8-9.19,31.12-16.23,9.17-6.93,15.09-16.79,20.82-26.33,1.23-2,2.46-4.1,3.73-6.13,8.21-13.16,16.21-21.3,26-26.38C211.25,29,224.48,26,243,25.1c22.62-1.11,54.1,1.67,75.55,21.25,11.1,10.13,16.24,23.9,19.8,36,5.06,17.28,10.3,30.51,20.71,43,1.88,2.27,4,4.68,6.19,7.21,15.9,18.21,37.66,43.15,22.83,67.1-15.69,25.32-53.23,20.63-78.08,17.52l-60.2-7.42c-8.47-1.06-16.46-2.07-25.15-.61a142.58,142.58,0,0,0-24.2,6.33c-2.7,1-5.37,1.95-8,2.93-14.3,5.29-27.81,10.28-43.24,10.5h-1.43a100.17,100.17,0,0,1-46.59-11.55C76.48,204.42,55.51,176.07,65.27,149.17Z"/><path class="cls-2" d="M525.83,129.85C512,81.14,483.75,30.24,435,9.45c-40.23-17.17-93-12-120.94,24.42-19,24.73-22.79,56.57-36,84.12-7.84,16.37-18.48,32.83-37.23,36.5-15.67,3.07-30.37,4.13-44.75,11.57a4.67,4.67,0,0,0-.86.44,4.36,4.36,0,0,0-.83.58c-33.81,22.66-36.42,73.66-.48,96.36,19.47,12.29,43.95,10.61,65.11,4.11,23.35-7.17,41.08-25,64.52-31.35l15.89-1.94a5.27,5.27,0,0,0,.6-.14c48.16,3.84,89.56,69,141.75,39.16,23-13.18,51.72-52,51.72-98C533.56,159.93,530,144.56,525.83,129.85Z"/><polygon class="cls-3" points="389.78 227.1 367.97 266.14 359.29 310.53 358.44 364.11 366.59 391.78 342 391.78 345.96 316.53 305.21 218.64 316.32 221.32 327.78 248.34 333.19 217.88 342 219.74 334.72 263.46 352.09 304.94 358.03 271.11 367.47 209.15 375.26 209.15 368.58 248.65 386.21 217.31 389.78 227.1"/><polygon class="cls-4" points="427.73 408.17 399.87 382.29 375.28 376.63 366.59 391.78 352.41 374.27 329.01 361.68 312.06 368.06 298.17 387.39 283.24 385.93 274.39 391.95 267.9 408.17 427.73 408.17"/><polygon class="cls-5" points="40.53 359.57 34.36 348.94 22.54 340.42 26.6 350.16 20.66 341.55 13.6 339.2 18 347.54 11.04 340.45 5.21 342.07 0 345.84 4.7 351.88 11.99 356.58 18.84 355.32 15.86 358.03 22.28 358.98 26.7 356.7 22.52 361.66 32.27 362.37 40.53 359.57"/><polygon class="cls-6" points="56.16 380.62 35.2 356.28 19.71 351.02 20.03 350.07 35.78 355.42 56.92 379.97 56.16 380.62"/><polyline class="cls-5" points="60.95 349.97 40.47 327.22 19.87 312.05 38.43 309.56 43.87 317.26 43.93 310.23 50.66 315.22 52.92 323.48 53.94 313.86 58.69 321.45 58.69 330.95 61.41 326.88 64.01 335.71 60.95 349.97"/><polygon class="cls-5" points="73.74 335.59 67.07 315.11 64.92 299.49 72.16 306.17 67.07 293.94 69.9 283.42 74.31 293.61 74.65 283.87 83.7 273.57 89.06 296.23 85.85 303.9 88.68 302.77 83.02 317.6 86.87 316.81 86.65 323.48 76.57 338.76 73.74 335.59"/><polygon class="cls-6" points="67.57 379.51 56.32 334.6 36.83 315.01 37.54 314.3 57.22 334.09 57.25 334.23 68.54 379.26 67.57 379.51"/><rect class="cls-6" x="37.03" y="338.71" width="76.6" height="1" transform="translate(-271.13 365.77) rotate(-81.86)"/><polygon class="cls-2" points="85.09 372.95 97.85 355.96 119.36 341.91 122.07 333.56 111.88 331.41 96.27 337.86 93.89 346.12 92.64 338.2 87.1 341.82 87.1 356.19 84.83 346.91 80.08 361.74 85.09 372.95"/><polygon class="cls-6" points="78.73 388.19 77.81 387.8 93.03 352.37 108.97 339.62 109.59 340.4 93.85 353 78.73 388.19"/><polygon class="cls-5" points="36.63 407.16 48.48 379.32 66.82 370.15 85.49 377.96 91.26 384.41 102.13 366.76 119.78 358.61 138.79 365.4 153.4 384.07 166.98 383.06 186.67 400.37 191.08 407.16 36.63 407.16"/><polygon class="cls-4" points="212.65 412.94 206.44 402.95 192.52 401 179.87 404.76 169.8 393.29 146.31 389.06 136.26 402.45 120.82 398.25 111.37 412.94 212.65 412.94"/></g></g></svg>