<svg xmlns="http://www.w3.org/2000/svg" viewBox="0 0 577.98 455.68"><defs><style>.cls-1{fill:#8fcaac;}.cls-2{fill:#6cbe99;}.cls-3{fill:#5a4745;}.cls-4{fill:#4b160c;}.cls-5{fill:#41725b;}</style></defs><g id="Calque_2" data-name="Calque 2"><g id="Arbres"><path class="cls-1" d="M151,390.2c40.31,0,44.22,13.33,96.68,13.33s130.05-6.67,170.24-6.67,89-1.38,89,18.86-78.41,22.16-102.95,22.16-66.52,17.8-132.83,17.8S165,438.56,127,438.56,3,430.89,3,418.64s31.6-18.81,67.81-18.81S134.09,390.2,151,390.2Z"/><path class="cls-2" d="M361.51,134.66c-10.76-12.67-27.8-21.17-44.56-29-30.6-14.24-62.56-27.78-86.67-48.21-6.62-5.6-12.61-11.7-20-16.68-16.86-11.34-40.82-16-62.55-12.1S107,44.86,98.23,60.78C88.2,78.93,90.74,101,76,117.07c-8.71,9.53-22.26,15.53-34.18,22.67-13.3,8-25.11,17.88-31.74,29.87s-14,27.77-7.72,42.43c9.39,22,46,22.59,70.22,19.45,116.73-15.11,158.62,6.9,222.68-2.6,27.08-4,53.53-14.67,67.34-33.2S376.69,152.55,361.51,134.66Z"/><path class="cls-3" d="M353.27,307.2l2.28,67.62c.27,7.9-4.21,29.72,7.12,31.16a3.79,3.79,0,0,0,3.31-1.9l.74-1.12c2.72-4.11-3.9-7.95-6.61-3.86q5.17,1.78,3.82-2.54c-.05-1.61-.11-3.22-.16-4.83q-.21-6-.41-12.08l-.81-24.15q-.81-24.15-1.63-48.3c-.16-4.91-7.82-4.93-7.65,0Z"/><polygon class="cls-4" points="150.99 390.2 158.42 355.53 152.9 308.85 133.44 259.92 106.47 209.72 114.57 203.85 142.38 257.12 153.46 213.48 159.59 213.48 149.96 268.02 159.59 286.63 170.04 267.18 181.25 253.57 177.71 214.2 183.2 212.24 187.83 241.5 209.72 210.11 219.79 211.85 198.28 246.27 166.06 300.9 169.55 331.65 170.72 372.34 166.06 396.9 150.99 390.2"/><polygon class="cls-4" points="353.27 399.34 355.33 368.19 355.33 312.06 318 184.4 333.63 184.4 347.61 251.69 355.33 209.4 361.26 212.45 358.74 232.5 355.64 271.36 366.09 303.13 369.49 288.9 376.19 279.37 384.29 203.85 393.65 209.4 385.58 267.37 413.85 239.38 419.14 227.94 438.56 209.4 425.51 241.18 390.84 274.4 381.07 295.87 368.49 337.18 378.28 396.9 353.27 399.34"/><polygon class="cls-2" points="68.93 402.79 74.61 393.45 87.59 389.56 106.52 364.19 117.57 371.48 123.33 378.59 134.54 366.65 150.1 368.46 161.72 388.7 172.52 402.79 68.93 402.79"/><polygon class="cls-5" points="263.27 406.79 363.58 406.79 347.09 374.49 337.69 369.26 317.67 382.59 310.54 373.12 300.86 368.19 290.65 383.49 285.63 397.45 277.65 394.73 263.27 406.79"/><polygon class="cls-2" points="314.04 408.11 313.43 399.83 330.41 382.51 353.27 387.49 372.93 368.19 393.65 355.53 413.67 365.16 428.87 387.49 459.73 379.94 479.61 390.2 487.34 408.11 314.04 408.11"/><path class="cls-5" d="M172.74,137c18-19.3,45.1-29.81,54.52-56.36,5-14.12-.63-29.37,5.42-43.79a58,58,0,0,1,21.84-25.63A69,69,0,0,1,287.26.1c16.32-1.25,49.23,9.61,49.88,11.63,23,12.82,43.86,37.78,71.44,36.32,25.7-1.35,48.05-17.83,73.83-19.63,23.92-1.67,43.84,11.95,59.39,28.86,17.36,18.9,32,41.23,35.62,67.06,0,.21,0,.4,0,.61a6.74,6.74,0,0,1,.2,1c4.46,50.72-35.68,91.78-82.42,103.77-27,6.92-55,5.59-82.09.18-31.68-6.32-62.13-16.5-94.81-16.19-30.14.29-60.27,6.06-90.43,3.15-22.19-2.14-48.07-8.66-61.82-27.86C153.64,171.68,159.05,151.63,172.74,137Z"/></g></g></svg>