<svg xmlns="http://www.w3.org/2000/svg" viewBox="0 0 305.7 275.39"><defs><style>.cls-1{fill:#8fcaac;}.cls-2{fill:#41725b;}.cls-3{fill:#4b160c;}.cls-4{fill:#6cbe99;}</style></defs><g id="Calque_2" data-name="Calque 2"><g id="Arbres"><path class="cls-1" d="M159.56,240.8c-46.54,0-103.13,3.52-118.94,3.52S0,246.49,0,254.17s27.8,8.48,52.38,8.48,30.36,10.75,48.27,10.75,28.86-9.34,56.43-9.34,29.15,11.33,58.6,11.33,64.8-12.08,74.07-21.35c10.8-10.81-47.8-19-70.88-19S170.36,240.8,159.56,240.8Z"/><path class="cls-2" d="M303.86,93.42h0a5.45,5.45,0,0,0-.27-.59c0-.09-.06-.19-.1-.28-6.46-14.73-22.12-21.3-35.94-27.1l-3.7-1.55c-8.05-3.4-16.38-6.91-23.39-12.2S229.12,39.07,224.81,31.9q-1.38-2.31-2.8-4.61c-6.17-9.89-12.19-16-19.51-19.83C194.13,3.1,184.18.84,170.26.16c-17-.84-40.67,1.25-56.8,16-8.35,7.61-12.2,18-14.88,27.08C94.77,56.2,90.84,66.15,83,75.57c-1.42,1.7-3,3.51-4.65,5.41-12,13.69-28.31,32.44-17.16,50.44,11.79,19,40,15.51,58.69,13.18L165.14,139c6.37-.8,12.38-1.56,18.91-.46a107.78,107.78,0,0,1,18.19,4.76c2,.72,4,1.46,6,2.2,10.74,4,20.9,7.73,32.5,7.89h1.08a75.26,75.26,0,0,0,35-8.68C295.43,135,311.2,113.64,303.86,93.42Z"/><polygon class="cls-3" points="150.53 136.08 163 166.12 168.12 188.14 167.07 248.01 176.28 251 175.03 203.21 175.07 185.11 178.92 173.77 192.25 156.51 198.74 128.38 194.65 126.25 189.2 152.57 171.13 174.5 168.45 166.12 169.87 126.25 164.59 126.25 161.28 152.26 152.26 126.25 143.32 121.81 150.53 136.08"/><polygon class="cls-4" points="210.91 231.2 230.81 225.23 243.94 228.22 255.09 234.37 264.47 244.92 204.28 244.92 210.91 231.2"/><polygon class="cls-2" points="130.63 250.5 218.87 250.5 207.48 211.62 188.75 205.7 168.32 222.05 145.63 219.66 135.46 230.46 130.63 250.5"/></g></g></svg>