<svg xmlns="http://www.w3.org/2000/svg" viewBox="0 0 224.12 265.68"><defs><style>.cls-1{fill:#e74011;}.cls-15,.cls-2{fill:#ededed;}.cls-3{fill:#7f722f;}.cls-4{fill:#167272;}.cls-5{fill:#4b160c;}.cls-6{fill:#1ea7ac;}.cls-7{fill:#eddf99;}.cls-8{fill:#188c8c;}.cls-9{fill:#ede7ca;}.cls-10{fill:#333c72;}.cls-11{fill:#6e7ebd;}.cls-12{fill:#22284c;}.cls-13{fill:#111425;}.cls-14{fill:#bdbcbc;}.cls-15{opacity:0.75;}.cls-16{fill:#e5856e;}.cls-17{fill:#e45f41;}.cls-18{fill:#9a2915;}</style></defs><g id="Calque_2" data-name="Calque 2"><g id="Stand_glace" data-name="Stand glace"><polygon class="cls-1" points="125.24 246.7 124.51 249.1 124.51 257.5 121.49 261.41 117.41 260.68 116.1 256.57 118.72 249.1 118.72 246.01 125.24 246.7"/><polygon class="cls-2" points="129.66 208.57 125.56 245.63 125.24 246.7 118.72 246.01 118.72 210.1 129.66 208.57"/><polygon class="cls-1" points="148.98 255.68 147.63 259.36 143.54 260.68 139.25 258.24 138.25 248.1 138.07 245.42 144.76 244.62 144.59 247.27 148.98 255.68"/><polygon class="cls-2" points="147.27 206.08 144.76 244.62 138.07 245.42 135.66 208.57 147.27 206.08"/><polygon class="cls-3" points="127.31 76.06 123.03 80.32 120.59 88.02 122.51 94.76 126.74 99.91 131.67 101.17 140.19 101.17 144.74 98.88 147.99 93.71 149.49 88.62 146.43 79.93 141.24 75.56 135.66 73.9 127.31 76.06"/><polygon class="cls-2" points="131.67 101.17 131.87 98.37 128.92 94.77 127.36 90.67 126.74 84.71 129.31 78.1 134.73 76.01 140.74 77.68 143.53 82.9 142.88 90.74 141.4 94.7 138.79 98.51 139.27 101.17 138.84 104.21 135.66 106.25 132.48 104.21 131.67 101.17"/><polygon class="cls-3" points="132.17 82.13 131.19 90.5 128.92 94.77 124.61 95.29 122.89 84.08 128.96 76.01 135.59 74.81 141.24 75.56 145.91 87.53 144.74 95.29 140.59 92.36 135.68 88.53 132.17 82.13"/><polygon class="cls-1" points="121 138.75 114.16 218.41 152.85 218.41 148.91 138.24 121 138.75"/><polygon class="cls-4" points="147.99 114.25 148.63 134.27 141.66 150.92 147.24 149.53 156.59 132.09 155.89 112.97 150.82 104.91 139.31 100.41 138.84 104.21 135.66 106.25 132.48 104.21 131.63 100.41 118.13 106.25 115.16 115.2 114.1 138.24 117.11 140.76 127.29 150.22 133.3 150.92 124.61 138.4 122.51 134.27 124.61 114.78 119.51 154.5 149.99 154.44 147.99 114.25"/><rect class="cls-5" x="85.61" y="-2.37" width="4.29" height="171.8" transform="matrix(0.97, -0.26, 0.26, 0.97, -18.63, 25.56)"/><polygon class="cls-6" points="134.31 13.46 91.23 2.05 66.25 3.25 44.02 14.71 12.42 46.12 2.6 86.33 4.8 85.74 82.76 64.85 162.92 43.38 134.31 13.46"/><polygon class="cls-7" points="5 85.69 10.07 90.69 17.31 92.08 22.88 87.25 24.77 80.39 5 85.69"/><polygon class="cls-8" points="27.63 79.63 32.69 84.63 39.93 86.02 45.5 81.19 47.39 74.33 27.63 79.63"/><polygon class="cls-7" points="50.25 73.56 55.32 78.56 62.56 79.96 68.13 75.13 70.02 68.27 50.25 73.56"/><polygon class="cls-8" points="72.88 67.5 77.94 72.5 85.18 73.9 90.75 69.07 92.64 62.21 72.88 67.5"/><polygon class="cls-7" points="95.5 61.44 100.57 66.44 107.81 67.83 113.38 63.01 115.27 56.14 95.5 61.44"/><polygon class="cls-8" points="118.13 55.38 123.19 60.38 130.43 61.77 136 56.94 137.89 50.08 118.13 55.38"/><polygon class="cls-7" points="140.75 49.31 145.82 54.31 153.05 55.71 158.63 50.88 160.51 44.02 140.75 49.31"/><polygon class="cls-9" points="104.5 28.51 87.8 11.21 66.25 3.25 51.57 20.92 45.76 44.25 47.39 74.33 118.13 55.38 104.5 28.51"/><polygon class="cls-10" points="39.13 159.11 53.1 219.61 224.12 219.61 224.12 159.11 39.13 159.11"/><polygon class="cls-11" points="220.24 179.68 39.23 179.68 36 167.42 4.59 167.42 0 162.83 220.24 162.83 220.24 179.68"/><polygon class="cls-12" points="68.61 219.61 64.34 265.68 71.32 265.68 80.24 219.61 68.61 219.61"/><path class="cls-13" d="M170.52,182.79a41.56,41.56,0,1,0,45.68,37A41.56,41.56,0,0,0,170.52,182.79Zm8.17,77.74a36.61,36.61,0,1,1,32.58-40.23A36.61,36.61,0,0,1,178.69,260.53Z"/><circle class="cls-13" cx="174.87" cy="224.12" r="7.75"/><rect class="cls-14" x="171.05" y="187.64" width="3" height="28.86" transform="matrix(0.99, -0.1, 0.1, 0.99, -20.18, 19.15)"/><rect class="cls-14" x="163.64" y="189.76" width="3" height="28.86" transform="translate(-72.8 93.06) rotate(-26)"/><rect class="cls-14" x="157.41" y="194.29" width="3" height="28.86" transform="translate(-101.61 178.03) rotate(-46)"/><rect class="cls-14" x="153.11" y="200.67" width="3" height="28.86" transform="translate(-104.78 268.85) rotate(-66)"/><rect class="cls-14" x="151.24" y="208.15" width="3" height="28.86" transform="translate(-79.94 359.42) rotate(-86)"/><rect class="cls-14" x="139.12" y="228.74" width="28.86" height="3" transform="translate(-57.49 51.21) rotate(-15.99)"/><rect class="cls-14" x="142.5" y="235.66" width="28.86" height="3" transform="translate(-109.42 137.52) rotate(-36)"/><rect class="cls-14" x="148.04" y="241.01" width="28.86" height="3" transform="translate(-129.43 241.53) rotate(-55.99)"/><rect class="cls-14" x="155.07" y="244.14" width="28.86" height="3" transform="translate(-109.88 350.59) rotate(-75.98)"/><rect class="cls-14" x="175.68" y="231.75" width="3" height="28.86" transform="matrix(0.99, -0.1, 0.1, 0.99, -24.76, 19.87)"/><rect class="cls-14" x="183.09" y="229.63" width="3" height="28.86" transform="translate(-88.31 105.62) rotate(-26)"/><rect class="cls-14" x="189.32" y="225.1" width="3" height="28.86" transform="translate(-114.04 210.41) rotate(-46)"/><rect class="cls-14" x="193.62" y="218.71" width="3" height="28.86" transform="translate(-97.23 316.56) rotate(-66)"/><rect class="cls-14" x="195.49" y="211.24" width="3" height="28.86" transform="translate(-41.87 406.44) rotate(-86)"/><rect class="cls-14" x="181.75" y="216.51" width="28.86" height="3" transform="translate(-52.47 62.48) rotate(-15.99)"/><rect class="cls-14" x="178.38" y="209.59" width="28.86" height="3" transform="translate(-87.25 153.63) rotate(-36)"/><rect class="cls-14" x="172.84" y="204.24" width="28.86" height="3" transform="translate(-88.02 245.89) rotate(-55.99)"/><rect class="cls-14" x="165.8" y="201.11" width="28.86" height="3" transform="translate(-60 328.39) rotate(-75.98)"/><polygon class="cls-15" points="114.1 159.11 117.86 136.23 216.24 118.39 224.12 159.11 114.1 159.11"/><polygon class="cls-16" points="210.09 148.3 182.79 155.61 176.27 155.38 172.01 150.17 170 142.66 171.08 136.02 176.61 132.56 203.91 125.24 203.94 129.14 206.77 132.11 210.96 131.7 212.46 135.31 215.7 136.06 214.48 143.65 210.09 148.3"/><polygon class="cls-17" points="207.17 145.01 209.65 142.53 208.74 139.15 205.36 138.24 179.99 145.04 177.51 147.52 178.42 150.9 181.81 151.81 207.17 145.01"/><polygon class="cls-17" points="204.84 136.32 207.32 133.84 206.85 132.1 206.77 132.11 204.77 130.01 203.03 129.55 177.66 136.34 175.19 138.82 176.09 142.21 179.48 143.11 204.84 136.32"/><polygon class="cls-18" points="170.19 143.38 154.92 147.47 153.85 149.33 154.27 150.9 154.69 152.47 156.55 153.54 171.82 149.45 170.19 143.38"/></g></g></svg>