<?xml version="1.0" encoding="UTF-8"?>
<svg width="800" height="800" version="1.1" viewBox="0 0 800 800" xmlns="http://www.w3.org/2000/svg">
 <g transform="translate(0,0)">
  <path d="M400 100c-82.8 0-150 67.2-150 150 0 82.8 67.2 150 150 150s150-67.2 150-150c0-82.8-67.2-150-150-150zm0 270c-66.3 0-120-53.7-120-120s53.7-120 120-120 120 53.7 120 120-53.7 120-120 120z" fill="#009587"/>
  <path d="M400 160c-49.7 0-90 40.3-90 90s40.3 90 90 90 90-40.3 90-90-40.3-90-90-90zm0 150c-33.1 0-60-26.9-60-60s26.9-60 60-60 60 26.9 60 60-26.9 60-60 60z" fill="#00A862"/>
  <path d="M550 350H250c-16.6 0-30 13.4-30 30v220c0 16.6 13.4 30 30 30h300c16.6 0 30-13.4 30-30V380c0-16.6-13.4-30-30-30zm-150 250h-90v-90h90v90zm120 0h-90v-90h90v90z" fill="#E4002B"/>
  <text x="250" y="700" font-family="Arial" font-size="60" fill="#00A862">AQUITAINE</text>
 </g>
</svg>
