<svg xmlns="http://www.w3.org/2000/svg" width="1264" height="655" viewBox="0 0 1264 655">
  <mask id="fond-symboles-a" fill="#fff">
    <path fill-rule="evenodd" d="m.4073.2121h58.6547v59.18h-58.6547z"/>
  </mask>
  <g fill="none" fill-rule="evenodd">
    <path fill="#3c4488" d="m59.0623 35.1061-3.567-20.41-17.43 3.101-3.073-17.585-20.23 3.599 3.074 17.585-17.429 3.102 3.568 20.41 17.428-3.102 3.074 17.586 20.229-3.599-3.074-17.586z" mask="url(#fond-symboles-a)" transform="translate(1160 472)"/>
    <path fill="#1ea7ac" d="m17.273 81.914-17.273-12.202 48.378-69.712 17.273 12.202z" transform="translate(0 120)"/>
    <path fill="#edbcd8" d="m12.096 47.937-12.096-17.428 43.182-30.509 24.191 34.857-17.273 12.202-12.095-17.427z" transform="translate(1152 133)"/>
    <path fill="#edbcd8" d="m12.096 47.937-12.096-17.428 43.182-30.509 24.191 34.857-17.273 12.202-12.095-17.427z" transform="translate(47 502)"/>
    <path fill="#e74011" d="m41.122 0-20.766 3.694 5.142 29.431-25.498 4.536 8.294 47.46 20.765-3.693-4.631-26.508 25.498-4.538z" transform="translate(963 322)"/>
    <g fill="#6cbe99">
      <path d="m10.544 21.27525c-2.762 0-5.482-1.149-7.444-3.127-1.981-1.978-3.1-4.723-3.1-7.51 0-2.809 1.119-5.553 3.1-7.531.485-.491 1.012-.937 1.582-1.321.591-.381 1.201-.723 1.835-.978.631-.255 1.306-.468 1.962-.617 1.369-.255 2.761-.255 4.132 0 .674.149 1.329.362 1.961.617.654.255 1.264.597 1.834.978.569.384 1.119.83 1.604 1.321 1.959 1.978 3.078 4.722 3.078 7.531 0 2.787-1.119 5.532-3.078 7.51-1.984 1.978-4.682 3.127-7.466 3.127" transform="translate(1242 633)"/>
      <path d="m10.544 21.27525c-2.762 0-5.482-1.149-7.444-3.127-1.981-1.978-3.1-4.723-3.1-7.51 0-2.809 1.119-5.553 3.1-7.531.485-.491 1.012-.937 1.582-1.321.591-.381 1.201-.723 1.835-.978.631-.255 1.306-.468 1.962-.617 1.369-.255 2.761-.255 4.132 0 .674.149 1.329.362 1.961.617.654.255 1.264.597 1.834.978.569.384 1.119.83 1.604 1.321 1.959 1.978 3.078 4.722 3.078 7.531 0 2.787-1.119 5.532-3.078 7.51-1.984 1.978-4.682 3.127-7.466 3.127" transform="translate(977 38)"/>
      <path d="m10.544 21.27525c-2.762 0-5.482-1.149-7.444-3.127-1.981-1.978-3.1-4.723-3.1-7.51 0-2.809 1.119-5.553 3.1-7.531.485-.491 1.012-.937 1.582-1.321.591-.381 1.201-.723 1.835-.978.631-.255 1.306-.468 1.962-.617 1.369-.255 2.761-.255 4.132 0 .674.149 1.329.362 1.961.617.654.255 1.264.597 1.834.978.569.384 1.119.83 1.604 1.321 1.959 1.978 3.078 4.722 3.078 7.531 0 2.787-1.119 5.532-3.078 7.51-1.984 1.978-4.682 3.127-7.466 3.127" transform="translate(153 301)"/>
    </g>
    <path fill="#efd857" d="m15.659 37.6905265-15.659-14.249c25.247-28.24300005 55.494-31.02200005 87.474-8.028l-12.24 17.326c-23.217-16.698-41.596-15.169-59.575 4.951" transform="translate(369)"/>
  </g>
</svg>
